<?xml version="1.0" encoding="UTF-8" standalone="no"?>
<!-- Created with Inkscape (http://www.inkscape.org/) -->

<svg
   width="73.459793mm"
   height="68.03878mm"
   viewBox="0 0 73.459793 68.03878"
   version="1.1"
   id="svg1"
   inkscape:version="1.4.2 (f4327f4, 2025-05-13)"
   sodipodi:docname="random_logo.svg"
   xmlns:inkscape="http://www.inkscape.org/namespaces/inkscape"
   xmlns:sodipodi="http://sodipodi.sourceforge.net/DTD/sodipodi-0.dtd"
   xmlns="http://www.w3.org/2000/svg"
   xmlns:svg="http://www.w3.org/2000/svg">
  <sodipodi:namedview
     id="namedview1"
     pagecolor="#ffffff"
     bordercolor="#000000"
     borderopacity="0.25"
     inkscape:showpageshadow="2"
     inkscape:pageopacity="0.0"
     inkscape:pagecheckerboard="0"
     inkscape:deskcolor="#d1d1d1"
     inkscape:document-units="mm"
     showguides="true"
     inkscape:zoom="0.68862935"
     inkscape:cx="121.25536"
     inkscape:cy="159.01152"
     inkscape:window-width="1920"
     inkscape:window-height="991"
     inkscape:window-x="2391"
     inkscape:window-y="-9"
     inkscape:window-maximized="1"
     inkscape:current-layer="layer1" />
  <defs
     id="defs1" />
  <g
     inkscape:label="Warstwa 1"
     inkscape:groupmode="layer"
     id="layer1"
     transform="translate(-72.852715,-53.61813)">
    <path
       d="m 125.39673,53.618419 c 0.51121,1.80982 0.52553,2.897989 0.46047,4.782362 -0.0129,0.59001 -0.0258,1.180024 -0.039,1.787916 -0.0311,1.237543 -0.07,2.474848 -0.11707,3.711682 -0.11829,3.795137 -0.0399,5.738372 1.2702,7.086052 1.39205,1.462464 2.78483,2.762912 4.32572,3.999504 15.13408,12.173753 16.29463,17.373538 14.23759,22.864166 -2.4516,5.642159 -6.87218,5.314909 -9.14897,4.692569 -1.40325,-0.94317 -2.64482,-1.98917 -3.91403,-3.165995 -1.68542,-1.497094 -3.26875,-1.777341 -5.35592,-1.763739 -4.33599,0.761384 -4.64858,3.033354 -11.40552,2.130124 -1.19073,8.00533 1.33002,13.56087 1.26299,21.84719 -3.58963,0.2957 -6.12497,-0.35249 -15.19105,-2.74908 -1.16011,-0.3066 -2.320573,-0.61124 -3.481113,-0.91555 -1.90767,-0.5012 -3.81424,-1.00794 -5.72015,-1.5184 -0.77916,-0.20836 -1.5585,-0.41569 -2.33804,-0.62207 -1.15771,-0.3071 -2.31453,-0.61856 -3.4712,-0.93111 -0.34808,-0.0916 -0.69617,-0.18325 -1.0548,-0.27765 -4.35,-1.18812 -8.10551,-3.58365 -10.76921,-7.90786 -2.135415,-4.85356 -2.563498,-9.568356 -1.62336,-14.883573 3.03995,-10.762208 13.22819,-15.668318 20.16515,-11.014676 -1.57381,-6.587157 2.99841,-12.77279 6.25156,-15.144437 3.106583,-1.878509 5.285183,-2.602894 8.797773,-2.392331 3.15685,0.102128 3.15685,0.102128 5.80665,-1.731506 1.91437,-1.586235 3.24211,-3.433436 5.04959,-4.876769 2.00281,-1.460601 3.57831,-3.001846 6.00176,-3.007108 z m -7.05538,10.315353 -1.43606,1.473621 c 1.037,2.325111 2.27213,4.005205 4.35903,5.236563 l -0.36305,-8.183806 c -1.29334,0 -1.59865,0.487197 -2.55992,1.473622 z M 98.423927,87.806446 v 2.357795 c -0.35607,-0.326729 -0.71213,-0.65346 -1.07899,-0.990087 -17.9973,-16.064564 -25.970082,13.487746 -14.90489,18.673556 3.06103,1.40976 6.17439,2.24331 9.39678,2.94724 3.28915,0.74542 6.53717,1.57002 9.781153,2.55811 3.29385,0.98487 7.09342,2.99297 10.49913,2.81823 -0.47881,-3.77318 -1.46449,-14.47494 -0.94157,-17.47716 -0.028,-0.01217 -4.75971,-4.295966 -4.75971,-10.298232 l 3.99597,-0.589452 c 0.0206,0.401191 0.0412,0.802391 0.0624,1.215739 2.38447,9.446567 9.89836,6.36991 12.92447,4.678749 7.12046,-3.830688 12.49352,1.186117 14.48538,3.536691 3.58014,1.95471 4.91814,-3.74618 3.49648,-5.305036 -3.15497,-3.57079 -5.82569,-6.722515 -8.99093,-9.431181 -2.6654,-2.372591 -5.21914,-4.827774 -7.67781,-7.494755 -0.77161,-0.879234 -0.77161,-0.879234 -1.81262,-0.757529 -0.49075,2.388888 -0.54026,4.620458 -0.4995,7.073388 h -3.99597 l 0.12488,-1.473624 c -0.22204,-3.668336 -1.5289,-6.326706 -3.83988,-8.768051 -2.53739,-2.487178 -5.07815,-3.063741 -8.31193,-2.986388 -0.87703,0.156352 -12.384143,2.547384 -7.952873,19.711997 z"
       fill="#176a0f"
       id="path1"
       sodipodi:nodetypes="sccccccccccccccccccccccccssscccsccccccccccccccccccccccc"
       style="stroke-width:0.542613" />
  </g>
</svg>
